<svg width="168" height="42" viewBox="0 0 168 42" fill="none" xmlns="http://www.w3.org/2000/svg" role="img" aria-label="PkuClaw">
  <rect width="42" height="42" rx="12" fill="#C41E24"/>
  <path d="M13 25.5C18 16 26 11.5 31 12.5C27 15.5 24.5 19 23.5 23.5C26.8 21.6 30.1 21.2 34 22.4C29.9 25.3 27.1 29 25.4 34C22.5 30.9 19.7 29.2 16.7 29C14.7 28.9 13.1 27.8 13 25.5Z" fill="#FFF5F0"/>
  <path d="M52 28V12h7.2c3.6 0 6 2.2 6 5.5s-2.4 5.5-6 5.5h-3.8v5h-3.4Zm3.4-7.8h3.4c1.9 0 3-1 3-2.7s-1.1-2.7-3-2.7h-3.4v5.4ZM68.5 28V12h3.3v6.9l6.4-6.9h4l-6.3 6.6 6.8 9.4h-4l-5-7-1.9 2v5h-3.3ZM85 28V12h3.4v13.1h7.8V28H85ZM99 28l6.1-16h3.6l6.1 16h-3.6l-1.3-3.7h-6.2l-1.3 3.7H99Zm5.7-6.5h4.2l-2.1-6-2.1 6ZM118 28V12h6.1c5 0 8.1 3 8.1 8s-3.1 8-8.1 8H118Zm3.4-2.9h2.4c3.1 0 4.9-1.9 4.9-5.1s-1.8-5.1-4.9-5.1h-2.4v10.2ZM135 28V12h3.4v16H135Z" fill="#FFF5F0"/>
</svg>
